<?xml version="1.0" encoding="utf-8"?>
<!-- Svg Vector Icons : http://www.sfont.cn -->
<!DOCTYPE svg PUBLIC "-//W3C//DTD SVG 1.1//EN" "http://www.w3.org/Graphics/SVG/1.1/DTD/svg11.dtd">
<svg version="1.1" xmlns="http://www.w3.org/2000/svg" xmlns:xlink="http://www.w3.org/1999/xlink" x="0px" y="0px" viewBox="0 0 1000 1000" enable-background="new 0 0 1000 1000" xml:space="preserve">
<metadata> Svg Vector Icons : http://www.sfont.cn </metadata>
<g  fill="#6daefe">
    <path d="M515.6,84.8L262.9,247.1H136.8C66.8,247.1,10,303.2,10,373.4v253.2c0,69.8,56.1,126.3,126.8,126.3h126.1l252.7,162.2c35.7,15.5,63.4-1.1,63.4-36.2V121C579.1,85.8,550.7,69.6,515.6,84.8z"/><path d="M728.6,288.7c-11.9-12.8-31.9-13.5-44.6-1.5c-12.8,12-13.4,31.9-1.5,44.7c5.9,6.3,15.9,20.3,26.3,41.4c17.7,36,28.4,78.3,28.4,126.6s-10.7,90.7-28.4,126.7c-10.4,21.1-20.4,35.1-26.3,41.4c-12,12.8-11.3,32.8,1.5,44.7c12.8,12,32.8,11.3,44.7-1.5c9.9-10.6,23.6-29.6,36.9-56.7c21.8-44.4,34.8-96.1,34.8-154.6c0-58.5-13-110.2-34.8-154.6C752.2,318.3,738.5,299.3,728.6,288.7z"/><path d="M922.5,249.6c-25.5-43.2-51.3-73.2-69.4-89.3c-13-11.6-33-10.5-44.6,2.6s-10.5,33,2.6,44.6c3,2.7,8.9,8.6,16.9,17.8c13.7,15.8,27.3,34.7,40.2,56.4c36.7,62.3,58.8,135.2,58.8,218.3c0,83-22.1,155.9-58.9,218.3c-12.8,21.8-26.6,40.6-40.2,56.4c-8,9.2-13.9,15.2-16.9,17.8c-13,11.6-14.2,31.6-2.6,44.6c11.6,13,31.6,14.2,44.6,2.6c18.1-16.1,43.9-46,69.4-89.3C964.6,678.8,990,595,990,500C990.1,405,964.7,321.2,922.5,249.6z"/>
</g>
</svg>